<svg width="78" height="82" viewBox="0 0 78 82" fill="none" xmlns="http://www.w3.org/2000/svg">
<g id="Zub_vector 1">
<g id="Group">
<path id="Vector" d="M41.8133 76.0905C41.9101 77.0151 41.9679 78.2147 42.1765 79.3861C42.4288 80.8034 43.2176 80.9288 44.1351 79.9794C45.0024 79.0817 45.8109 78.1137 46.579 77.1219C54.2612 67.1913 59.3995 55.7585 64.1882 44.1837C66.8454 37.7609 67.855 38.7488 60.7924 35.726C50.4431 31.2971 39.5963 30.8458 28.6255 32.3987C22.7882 33.2242 17.2042 34.9108 12.0415 37.9692C10.7805 38.7157 10.2755 39.4382 10.8848 40.9989C12.8359 45.9967 14.4802 51.131 16.5868 56.0541C18.3974 60.2859 20.6431 64.3211 22.791 68.39C23.1302 69.034 23.967 69.394 24.5735 69.8858C25.0156 69.254 25.5906 68.6822 25.8772 67.9826C27.6018 63.7771 29.1766 59.5039 30.9839 55.3375C31.6496 53.8041 32.616 52.2897 33.783 51.1344C37.3023 47.6515 41.0175 48.7219 42.1135 53.6616C42.7365 56.4679 42.8619 59.4585 42.7821 62.3526C42.6585 66.8449 42.169 71.326 41.8133 76.0905ZM3.30411 41.5429C4.66419 39.5802 5.8993 37.5038 7.43085 35.6982C8.37281 34.5883 8.5565 33.6159 8.23891 32.2743C6.76279 26.0349 6.31413 19.6896 6.67353 13.2868C7.09353 5.80579 12.1674 2.17115 19.0918 4.40609C20.9475 5.00471 22.7859 5.73261 24.5279 6.62249C28.3831 8.59251 32.4112 9.43702 36.693 9.19796C37.3512 9.16089 38.0343 9.61412 38.7056 9.84C38.2546 10.4455 37.9159 11.3866 37.3324 11.5973C34.7607 12.5272 32.1312 13.2971 29.4956 14.0167C28.4587 14.3001 27.3265 14.2035 26.2831 14.4699C25.6348 14.6353 25.0705 15.1573 24.4687 15.5193C25.0484 15.8291 25.6399 16.4258 26.2074 16.4019C29.2217 16.2736 32.2472 16.1272 35.237 15.7291C39.9849 15.0963 43.9481 12.7365 47.3824 9.32335C49.0516 7.66458 50.7739 6.059 52.5361 4.50805C57.1002 0.491893 63.5567 1.13637 67.3936 5.88434C71.0031 10.3513 71.3479 15.5881 70.631 20.9913C70.1692 24.4718 69.4142 27.9215 68.6001 31.3356C68.235 32.8646 68.3398 33.8545 69.465 35.0874C71.2549 37.0476 72.6803 39.365 74.2612 41.5317C57.9788 21.7368 18.4825 22.5476 3.30411 41.5429Z" fill="#0F2D4A"/>
</g>
</g>
</svg>
